<svg width="40" height="40" viewBox="0 0 40 40" fill="none" xmlns="http://www.w3.org/2000/svg">
<circle cx="20" cy="20" r="19.5" stroke="white"/>
<path fill-rule="evenodd" clip-rule="evenodd" d="M18.3464 11.5771C19.3562 10.5673 20.7257 10 22.1538 10H24.9231C25.3479 10 25.6923 10.3444 25.6923 10.7692V14.4615C25.6923 14.8864 25.3479 15.2308 24.9231 15.2308H22.1538C22.113 15.2308 22.0739 15.247 22.045 15.2758C22.0162 15.3047 22 15.3438 22 15.3846V17.3846H24.9231C25.16 17.3846 25.3836 17.4937 25.5294 17.6805C25.6752 17.8672 25.7268 18.1106 25.6693 18.3404L24.7463 22.0327C24.6606 22.3752 24.353 22.6154 24 22.6154H22V29.2308C22 29.6556 21.6556 30 21.2308 30H17.5385C17.1136 30 16.7692 29.6556 16.7692 29.2308V22.6154H14.7692C14.3444 22.6154 14 22.271 14 21.8462V18.1538C14 17.729 14.3444 17.3846 14.7692 17.3846H16.7692V15.3846C16.7692 13.9565 17.3365 12.5869 18.3464 11.5771ZM22.1538 11.5385C21.1337 11.5385 20.1555 11.9437 19.4342 12.665C18.7129 13.3863 18.3077 14.3646 18.3077 15.3846V18.1538C18.3077 18.5787 17.9633 18.9231 17.5385 18.9231H15.5385V21.0769H17.5385C17.9633 21.0769 18.3077 21.4213 18.3077 21.8462V28.4615H20.4615V21.8462C20.4615 21.4213 20.8059 21.0769 21.2308 21.0769H23.3994L23.9378 18.9231H21.2308C20.8059 18.9231 20.4615 18.5787 20.4615 18.1538V15.3846C20.4615 14.9358 20.6398 14.5053 20.9572 14.188C21.2746 13.8706 21.705 13.6923 22.1538 13.6923H24.1538V11.5385H22.1538Z" fill="#74C774"/>
</svg>
