<svg width="40" height="40" viewBox="0 0 40 40" fill="none" xmlns="http://www.w3.org/2000/svg">
<circle cx="20" cy="20" r="19.5" stroke="white"/>
<path d="M24.2131 14.7132C24.2131 14.1293 24.6865 13.6559 25.2705 13.6559C25.8545 13.6559 26.3278 14.1293 26.3278 14.7132C26.3278 15.2972 25.8545 15.7706 25.2705 15.7706C24.6865 15.7706 24.2131 15.2972 24.2131 14.7132Z" fill="#74C774"/>
<path fill-rule="evenodd" clip-rule="evenodd" d="M19.9837 14.9775C17.2099 14.9775 14.9613 17.2262 14.9613 20C14.9613 22.7738 17.2099 25.0224 19.9837 25.0224C22.7576 25.0224 25.0062 22.7738 25.0062 20C25.0062 17.2262 22.7576 14.9775 19.9837 14.9775ZM16.5473 20C16.5473 18.1021 18.0859 16.5636 19.9837 16.5636C21.8816 16.5636 23.4201 18.1021 23.4201 20C23.4201 21.8978 21.8816 23.4364 19.9837 23.4364C18.0859 23.4364 16.5473 21.8978 16.5473 20Z" fill="#74C774"/>
<path fill-rule="evenodd" clip-rule="evenodd" d="M25.5435 10.3073C21.8781 9.89758 18.0892 9.89758 14.4238 10.3073C12.2963 10.545 10.5789 12.2209 10.3287 14.3595C9.89042 18.107 9.89042 21.893 10.3287 25.6406C10.5789 27.7791 12.2963 29.455 14.4238 29.6928C18.0892 30.1024 21.8781 30.1024 25.5435 29.6928C27.6709 29.455 29.3884 27.7791 29.6386 25.6406C30.0768 21.893 30.0768 18.107 29.6386 14.3595C29.3884 12.2209 27.6709 10.545 25.5435 10.3073ZM14.6 11.8835C18.1483 11.4869 21.819 11.4869 25.3673 11.8835C26.7738 12.0407 27.9003 13.1505 28.0633 14.5437C28.4873 18.1689 28.4873 21.8311 28.0633 25.4563C27.9003 26.8496 26.7738 27.9594 25.3673 28.1166C21.819 28.5131 18.1483 28.5131 14.6 28.1166C13.1936 27.9594 12.067 26.8496 11.904 25.4563C11.48 21.8311 11.48 18.1689 11.904 14.5437C12.067 13.1505 13.1936 12.0407 14.6 11.8835Z" fill="#74C774"/>
</svg>
