<svg width="40" height="40" viewBox="0 0 40 40" fill="none" xmlns="http://www.w3.org/2000/svg">
<circle cx="19.9999" cy="20" r="19.5" stroke="white"/>
<path fill-rule="evenodd" clip-rule="evenodd" d="M13.5418 20.9467C13.5803 20.9678 13.6197 20.9842 13.6597 20.9965C13.6884 21.1223 13.7254 21.2849 13.7685 21.4751C13.8737 21.9392 14.0152 22.5669 14.1604 23.2213C14.4565 24.556 14.7514 25.9305 14.8052 26.3199C14.8718 26.8012 14.9655 27.1349 15.0848 27.3701C15.1466 27.4917 15.2222 27.6006 15.3159 27.6881C15.3631 27.7321 15.4142 27.7698 15.4686 27.8001C15.471 27.8015 15.4734 27.8028 15.4758 27.8041C15.7551 27.9714 16.0323 27.9539 16.2101 27.9112C16.3052 27.8883 16.384 27.8559 16.4405 27.8287C16.4692 27.8148 16.4937 27.8015 16.5134 27.7901L16.518 27.7875L19.3825 26.2677L22.0531 29.32C22.0925 29.365 22.1368 29.4043 22.1849 29.4369C22.524 29.6664 22.8672 29.7762 23.2048 29.7685C23.5418 29.7607 23.8251 29.6368 24.044 29.484C24.2583 29.3344 24.4138 29.1556 24.5139 29.0208C24.565 28.9519 24.6046 28.8902 24.633 28.8428C24.6474 28.8189 24.6591 28.7983 24.6682 28.7817L24.68 28.7598L24.6845 28.7511L24.6864 28.7475L24.6873 28.7458L24.6881 28.7441C24.71 28.7008 24.7284 28.6554 24.7431 28.6085L29.6146 13.0578C29.6302 13.008 29.6415 12.9569 29.6484 12.905C29.7102 12.4388 29.6155 11.9752 29.2903 11.6584C29.0123 11.3876 28.67 11.3321 28.4503 11.3221C28.2133 11.3114 27.9882 11.3488 27.8359 11.3824C27.7567 11.3999 27.6898 11.4181 27.6415 11.4323C27.6172 11.4394 27.5971 11.4456 27.5823 11.4505L27.571 11.4541L11.1748 16.3462L11.1727 16.3467C11.1623 16.3496 11.1489 16.3533 11.133 16.358C11.1013 16.3673 11.0586 16.3808 11.0085 16.3989C10.9108 16.4342 10.7726 16.4912 10.6273 16.5769C10.395 16.7139 9.8514 17.101 9.83399 17.8569C9.8201 18.4599 10.1275 18.8722 10.3211 19.0765C10.4273 19.1887 10.5313 19.2725 10.6077 19.3284C10.6432 19.3542 10.7176 19.4016 10.7499 19.4223L10.7581 19.4275L13.5418 20.9467ZM27.9185 12.9891L27.9161 12.9899C27.9079 12.9927 27.8997 12.9954 27.8914 12.9979L11.4753 17.8958C11.4667 17.8984 11.4581 17.9008 11.4495 17.903L11.4404 17.9055C11.4298 17.9087 11.4121 17.9142 11.3898 17.9222C11.3771 17.9268 11.3638 17.9319 11.3502 17.9375C11.3661 17.951 11.3814 17.9628 11.3951 17.9728C11.4082 17.9825 11.4183 17.9892 11.4239 17.9927L14.1848 19.4996C14.2353 19.5272 14.2814 19.5609 14.3226 19.5998L24.7839 14.4398L24.7937 14.4349C24.8014 14.4311 24.8113 14.4263 24.8233 14.4206C24.847 14.4094 24.8796 14.3945 24.9181 14.3785C24.9899 14.3485 25.1042 14.305 25.23 14.2784C25.3177 14.26 25.5755 14.2093 25.8292 14.3426C25.9858 14.4249 26.139 14.5774 26.2207 14.8121C26.2612 14.9287 26.276 15.0425 26.2769 15.1449C26.2936 15.3082 26.2669 15.4638 26.2195 15.5949C26.1172 15.8772 25.9085 16.0803 25.723 16.2323C25.5641 16.3625 23.4992 18.1107 21.4621 19.8365C20.4462 20.6971 19.4406 21.5494 18.689 22.1863L18.1952 22.6048L22.999 28.0952C23.1169 28.1628 23.1909 28.17 23.2258 28.1691C23.2673 28.1682 23.3029 28.1547 23.341 28.1282C23.3836 28.0984 23.4231 28.0558 23.4538 28.0143L23.4551 28.0126L28.1799 12.9302C28.1387 12.9359 28.0968 12.9435 28.0562 12.9525C28.0102 12.9626 27.9721 12.973 27.9467 12.9805C27.9341 12.9842 27.9251 12.987 27.9202 12.9886L27.9185 12.9891ZM18.3423 25.0788L17.3839 23.9834L16.8672 25.8613L18.3423 25.0788ZM16.6394 21.9634L17.8761 20.9151C18.6278 20.2781 19.6335 19.4258 20.6495 18.565L21.6818 17.6906L15.1086 20.9328L15.1294 21.0245C15.235 21.4903 15.3772 22.1207 15.5231 22.7787C15.6323 23.2706 15.7459 23.7884 15.8485 24.2675L16.3636 22.3951C16.4133 22.2145 16.5129 22.0658 16.6394 21.9634Z" fill="#74C774"/>
</svg>
