<svg width="40" height="40" viewBox="0 0 40 40" fill="none" xmlns="http://www.w3.org/2000/svg">
<circle cx="20" cy="20" r="19.5" stroke="white"/>
<path d="M16.4494 14.1498C16.2723 14.124 16.0917 14.1595 15.9375 14.2506H15.9244C15.5666 14.4603 15.2443 14.7254 14.9695 15.0359C14.741 15.3 14.6171 15.5672 14.5846 15.8244C14.5652 15.9778 14.5783 16.1311 14.624 16.2775L14.6403 16.2875C14.8975 17.0435 15.2335 17.7706 15.6441 18.4552C16.1729 19.417 16.8236 20.3065 17.5802 21.1017L17.6028 21.1342L17.6384 21.1605L17.661 21.1867L17.6872 21.2093C18.4853 21.9681 19.3769 22.622 20.3406 23.1548C21.442 23.7543 22.1103 24.0378 22.5114 24.1555V24.1618C22.6291 24.1975 22.736 24.2137 22.8437 24.2137C23.1856 24.1887 23.5092 24.0498 23.763 23.8195C24.0721 23.5445 24.3342 23.2209 24.539 22.8614V22.8551C24.731 22.4934 24.666 22.1511 24.3888 21.9196C23.8335 21.4343 23.2332 21.0033 22.5959 20.6323C22.1691 20.4008 21.7355 20.541 21.5596 20.7756L21.1848 21.2481C20.9926 21.4827 20.6434 21.4502 20.6434 21.4502L20.6334 21.4565C18.0295 20.7913 17.3349 18.1548 17.3349 18.1548C17.3349 18.1548 17.3024 17.7963 17.5433 17.6135L18.0126 17.2356C18.2373 17.0528 18.3938 16.6198 18.1528 16.1924C17.7845 15.5542 17.3544 14.9537 16.8687 14.3995C16.7625 14.2689 16.6136 14.18 16.4482 14.1486L16.4494 14.1498Z" fill="#74C774"/>
<path d="M20.8497 13.0038C20.5864 13.0038 20.3729 13.2173 20.3729 13.4806C20.3729 13.7439 20.5864 13.9574 20.8497 13.9574C22.0555 13.9574 23.0574 14.3515 23.849 15.1062C24.2565 15.5194 24.5736 16.0086 24.7819 16.544C24.9909 17.0813 25.086 17.6543 25.0616 18.2282C25.0504 18.4913 25.2546 18.7136 25.5177 18.7248C25.7807 18.736 26.0031 18.5318 26.0143 18.2687C26.0443 17.5626 25.9272 16.8582 25.6705 16.1983C25.4138 15.5384 25.0231 14.937 24.5224 14.4308L24.5129 14.4216C23.5307 13.4823 22.2857 13.0038 20.8497 13.0038Z" fill="#74C774"/>
<path d="M20.8172 14.5718C20.554 14.5718 20.3405 14.7852 20.3405 15.0486C20.3405 15.3119 20.554 15.5254 20.8172 15.5254H20.8328C21.7029 15.5867 22.336 15.8767 22.7799 16.3527C23.2343 16.843 23.4696 17.452 23.4522 18.2055C23.4461 18.4687 23.6546 18.6871 23.9178 18.6932C24.1811 18.6993 24.3994 18.4908 24.4055 18.2276C24.4284 17.2382 24.1102 16.3851 23.4788 15.704L23.4779 15.7031C22.8327 15.0107 21.9475 14.6444 20.8811 14.5728L20.8652 14.5718H20.8172Z" fill="#74C774"/>
<path d="M20.7992 16.1684C20.5362 16.1546 20.3119 16.3565 20.298 16.6195C20.2842 16.8824 20.4862 17.1068 20.7491 17.1207C21.1483 17.1417 21.4027 17.2614 21.5628 17.423C21.7235 17.5852 21.8437 17.8451 21.8656 18.2525C21.8798 18.5154 22.1044 18.7171 22.3674 18.7029C22.6303 18.6888 22.832 18.4642 22.8179 18.2012C22.7871 17.6291 22.608 17.1232 22.2404 16.752C21.872 16.38 21.369 16.1984 20.7992 16.1684Z" fill="#74C774"/>
<path fill-rule="evenodd" clip-rule="evenodd" d="M15.5931 10.5087C18.6275 9.83043 21.7742 9.83043 24.8085 10.5087L25.1319 10.581C26.9406 10.9853 28.3681 12.3726 28.824 14.169C29.5942 17.2041 29.5942 20.3835 28.824 23.4185C28.3681 25.215 26.9405 26.6022 25.1319 27.0065L24.8085 27.0788C22.9025 27.5049 20.9522 27.6633 19.0132 27.5541L16.4832 29.8178C16.2889 29.9916 16.0154 30.046 15.7694 29.9597C15.5235 29.8734 15.3439 29.66 15.3009 29.4029L14.8825 26.9033C13.2591 26.3988 12.0005 25.0846 11.5777 23.4185C10.8074 20.3835 10.8074 17.2041 11.5777 14.169C12.0335 12.3726 13.4611 10.9853 15.2698 10.581L15.5931 10.5087ZM24.4965 11.9046C21.6676 11.2723 18.7341 11.2723 15.9051 11.9046L15.5819 11.9769C14.2995 12.2635 13.2873 13.2471 12.9641 14.5208C12.2525 17.325 12.2525 20.2625 12.9641 23.0666C13.2873 24.3403 14.2994 25.3239 15.5819 25.6106L15.6673 25.6297C15.9513 25.6932 16.1685 25.9225 16.2166 26.2096L16.4972 27.8859L18.2827 26.2884C18.4268 26.1594 18.6171 26.0943 18.8101 26.108C20.711 26.2425 22.6267 26.1008 24.4965 25.6829L24.8198 25.6106C26.1022 25.3239 27.1144 24.3403 27.4376 23.0667C28.1492 20.2625 28.1492 17.325 27.4376 14.5208C27.1144 13.2471 26.1022 12.2635 24.8198 11.9769L24.4965 11.9046Z" fill="#74C774"/>
</svg>
